<svg xmlns="http://www.w3.org/2000/svg" width="48" height="48" viewBox="0 0 48 48" fill="none">
<path d="M17.625 13.875C18.2812 13.4062 19.2188 13.4062 19.875 13.875L33.375 22.125C34.0312 22.5 34.5 23.25 34.5 24C34.5 24.8438 34.0312 25.5938 33.375 25.9688L19.875 34.2188C19.2188 34.5938 18.2812 34.6875 17.625 34.2188C16.875 33.8438 16.5 33.0938 16.5 32.25V15.75C16.5 15 16.875 14.25 17.625 13.875ZM48 24C48 37.3125 37.2188 48 24 48C10.6875 48 0 37.3125 0 24C0 10.7812 10.6875 0 24 0C37.2188 0 48 10.7812 48 24ZM24 4.5C13.2188 4.5 4.5 13.3125 4.5 24C4.5 34.7812 13.2188 43.5 24 43.5C34.6875 43.5 43.5 34.7812 43.5 24C43.5 13.3125 34.6875 4.5 24 4.5Z" fill="#121212"/>
<path d="M48 24C48 37.3125 37.2188 48 24 48C10.6875 48 0 37.3125 0 24C0 10.7812 10.6875 0 24 0C37.2188 0 48 10.7812 48 24ZM17.625 13.875C16.875 14.25 16.5 15 16.5 15.75V32.25C16.5 33.0938 16.875 33.8438 17.625 34.2188C18.2812 34.6875 19.2188 34.5938 19.875 34.2188L33.375 25.9688C34.0312 25.5 34.5 24.8438 34.5 24C34.5 23.25 34.0312 22.5 33.375 22.125L19.875 13.875C19.2188 13.4062 18.2812 13.4062 17.625 13.7812V13.875Z" fill="white"/>
</svg>